<svg width="238" height="26" viewBox="0 0 238 26" fill="none" xmlns="http://www.w3.org/2000/svg">
<path d="M54.5866 6.06V20H52.7666V6.06H54.5866ZM63.0284 8.84C64.3618 8.84 65.4418 9.24667 66.2684 10.06C67.0951 10.86 67.5084 12.02 67.5084 13.54V20H65.7084V13.8C65.7084 12.7067 65.4351 11.8733 64.8884 11.3C64.3418 10.7133 63.5951 10.42 62.6484 10.42C61.6884 10.42 60.9218 10.72 60.3484 11.32C59.7884 11.92 59.5084 12.7933 59.5084 13.94V20H57.6884V9.04H59.5084V10.6C59.8684 10.04 60.3551 9.60667 60.9684 9.3C61.5951 8.99333 62.2818 8.84 63.0284 8.84ZM74.9414 10.54H72.6414V20H70.8214V10.54H69.4014V9.04H70.8214V8.26C70.8214 7.03333 71.1347 6.14 71.7614 5.58C72.4014 5.00667 73.4214 4.72 74.8214 4.72V6.24C74.0214 6.24 73.4547 6.4 73.1214 6.72C72.8014 7.02667 72.6414 7.54 72.6414 8.26V9.04H74.9414V10.54ZM81.8434 20.18C80.8168 20.18 79.8834 19.9467 79.0434 19.48C78.2168 19.0133 77.5634 18.3533 77.0834 17.5C76.6168 16.6333 76.3834 15.6333 76.3834 14.5C76.3834 13.38 76.6234 12.3933 77.1034 11.54C77.5968 10.6733 78.2634 10.0133 79.1034 9.56C79.9434 9.09333 80.8834 8.86 81.9234 8.86C82.9634 8.86 83.9034 9.09333 84.7434 9.56C85.5834 10.0133 86.2434 10.6667 86.7234 11.52C87.2168 12.3733 87.4634 13.3667 87.4634 14.5C87.4634 15.6333 87.2101 16.6333 86.7034 17.5C86.2101 18.3533 85.5368 19.0133 84.6834 19.48C83.8301 19.9467 82.8834 20.18 81.8434 20.18ZM81.8434 18.58C82.4968 18.58 83.1101 18.4267 83.6834 18.12C84.2568 17.8133 84.7168 17.3533 85.0634 16.74C85.4234 16.1267 85.6034 15.38 85.6034 14.5C85.6034 13.62 85.4301 12.8733 85.0834 12.26C84.7368 11.6467 84.2834 11.1933 83.7234 10.9C83.1634 10.5933 82.5568 10.44 81.9034 10.44C81.2368 10.44 80.6234 10.5933 80.0634 10.9C79.5168 11.1933 79.0768 11.6467 78.7434 12.26C78.4101 12.8733 78.2434 13.62 78.2434 14.5C78.2434 15.3933 78.4034 16.1467 78.7234 16.76C79.0568 17.3733 79.4968 17.8333 80.0434 18.14C80.5901 18.4333 81.1901 18.58 81.8434 18.58ZM99.8564 7.18C101.336 7.18 102.623 7.46 103.716 8.02C104.81 8.58 105.65 9.36667 106.236 10.38C106.823 11.38 107.116 12.54 107.116 13.86C107.116 14.9133 106.943 15.9267 106.596 16.9C106.25 17.86 105.743 18.64 105.076 19.24C104.423 19.84 103.656 20.14 102.776 20.14C102.11 20.14 101.596 19.9733 101.236 19.64C100.876 19.3067 100.67 18.8533 100.616 18.28C100.203 18.8533 99.6764 19.3067 99.0364 19.64C98.4097 19.9733 97.7431 20.14 97.0364 20.14C96.0231 20.14 95.2231 19.8333 94.6364 19.22C94.0631 18.5933 93.7764 17.7533 93.7764 16.7C93.7764 15.7 93.9831 14.7667 94.3964 13.9C94.8231 13.0333 95.4097 12.34 96.1564 11.82C96.9031 11.2867 97.7497 11.02 98.6964 11.02C99.9631 11.02 100.816 11.5 101.256 12.46L101.476 11.22H103.056L102.056 17C102.016 17.2533 101.996 17.4867 101.996 17.7C101.996 18.5 102.35 18.9 103.056 18.9C103.59 18.9 104.05 18.6467 104.436 18.14C104.836 17.6333 105.136 17 105.336 16.24C105.536 15.4667 105.636 14.7067 105.636 13.96C105.636 12.2133 105.11 10.86 104.056 9.9C103.016 8.94 101.543 8.46 99.6364 8.46C98.0497 8.46 96.6164 8.84667 95.3364 9.62C94.0697 10.38 93.0764 11.4267 92.3564 12.76C91.6364 14.0933 91.2764 15.5667 91.2764 17.18C91.2631 18.94 91.7897 20.2933 92.8564 21.24C93.9231 22.2 95.4031 22.68 97.2964 22.68C98.5497 22.68 99.6564 22.4533 100.616 22L100.856 23.24C99.6697 23.7333 98.3631 23.98 96.9364 23.98C95.5097 23.98 94.2497 23.7067 93.1564 23.16C92.0764 22.6267 91.2364 21.8533 90.6364 20.84C90.0497 19.84 89.7564 18.6733 89.7564 17.34C89.7564 15.46 90.1897 13.7467 91.0564 12.2C91.9231 10.64 93.1231 9.41333 94.6564 8.52C96.2031 7.62667 97.9364 7.18 99.8564 7.18ZM97.5764 18.72C98.1764 18.72 98.7297 18.5467 99.2364 18.2C99.7431 17.84 100.143 17.36 100.436 16.76C100.73 16.1467 100.876 15.48 100.876 14.76C100.876 14.0667 100.683 13.5067 100.296 13.08C99.9231 12.64 99.3897 12.42 98.6964 12.42C98.0564 12.42 97.4897 12.6133 96.9964 13C96.5164 13.3733 96.1431 13.8733 95.8764 14.5C95.6097 15.1133 95.4764 15.7533 95.4764 16.42C95.4764 17.1267 95.6564 17.6867 96.0164 18.1C96.3764 18.5133 96.8964 18.72 97.5764 18.72ZM109.43 14.48C109.43 13.36 109.657 12.38 110.11 11.54C110.564 10.6867 111.184 10.0267 111.97 9.56C112.77 9.09333 113.657 8.86 114.63 8.86C115.59 8.86 116.424 9.06667 117.13 9.48C117.837 9.89333 118.364 10.4133 118.71 11.04V9.04H120.55V20H118.71V17.96C118.35 18.6 117.81 19.1333 117.09 19.56C116.384 19.9733 115.557 20.18 114.61 20.18C113.637 20.18 112.757 19.94 111.97 19.46C111.184 18.98 110.564 18.3067 110.11 17.44C109.657 16.5733 109.43 15.5867 109.43 14.48ZM118.71 14.5C118.71 13.6733 118.544 12.9533 118.21 12.34C117.877 11.7267 117.424 11.26 116.85 10.94C116.29 10.6067 115.67 10.44 114.99 10.44C114.31 10.44 113.69 10.6 113.13 10.92C112.57 11.24 112.124 11.7067 111.79 12.32C111.457 12.9333 111.29 13.6533 111.29 14.48C111.29 15.32 111.457 16.0533 111.79 16.68C112.124 17.2933 112.57 17.7667 113.13 18.1C113.69 18.42 114.31 18.58 114.99 18.58C115.67 18.58 116.29 18.42 116.85 18.1C117.424 17.7667 117.877 17.2933 118.21 16.68C118.544 16.0533 118.71 15.3267 118.71 14.5ZM125.846 10.54V17C125.846 17.5333 125.959 17.9133 126.186 18.14C126.413 18.3533 126.806 18.46 127.366 18.46H128.706V20H127.066C126.053 20 125.293 19.7667 124.786 19.3C124.279 18.8333 124.026 18.0667 124.026 17V10.54H122.606V9.04H124.026V6.28H125.846V9.04H128.706V10.54H125.846ZM130.231 14.5C130.231 13.3667 130.458 12.38 130.911 11.54C131.364 10.6867 131.991 10.0267 132.791 9.56C133.604 9.09333 134.531 8.86 135.571 8.86C136.918 8.86 138.024 9.18667 138.891 9.84C139.771 10.4933 140.351 11.4 140.631 12.56H138.671C138.484 11.8933 138.118 11.3667 137.571 10.98C137.038 10.5933 136.371 10.4 135.571 10.4C134.531 10.4 133.691 10.76 133.051 11.48C132.411 12.1867 132.091 13.1933 132.091 14.5C132.091 15.82 132.411 16.84 133.051 17.56C133.691 18.28 134.531 18.64 135.571 18.64C136.371 18.64 137.038 18.4533 137.571 18.08C138.104 17.7067 138.471 17.1733 138.671 16.48H140.631C140.338 17.6 139.751 18.5 138.871 19.18C137.991 19.8467 136.891 20.18 135.571 20.18C134.531 20.18 133.604 19.9467 132.791 19.48C131.991 19.0133 131.364 18.3533 130.911 17.5C130.458 16.6467 130.231 15.6467 130.231 14.5ZM143.64 20.12C143.293 20.12 143 20 142.76 19.76C142.52 19.52 142.4 19.2267 142.4 18.88C142.4 18.5333 142.52 18.24 142.76 18C143 17.76 143.293 17.64 143.64 17.64C143.973 17.64 144.253 17.76 144.48 18C144.72 18.24 144.84 18.5333 144.84 18.88C144.84 19.2267 144.72 19.52 144.48 19.76C144.253 20 143.973 20.12 143.64 20.12ZM146.579 14.5C146.579 13.3667 146.805 12.38 147.259 11.54C147.712 10.6867 148.339 10.0267 149.139 9.56C149.952 9.09333 150.879 8.86 151.919 8.86C153.265 8.86 154.372 9.18667 155.239 9.84C156.119 10.4933 156.699 11.4 156.979 12.56H155.019C154.832 11.8933 154.465 11.3667 153.919 10.98C153.385 10.5933 152.719 10.4 151.919 10.4C150.879 10.4 150.039 10.76 149.399 11.48C148.759 12.1867 148.439 13.1933 148.439 14.5C148.439 15.82 148.759 16.84 149.399 17.56C150.039 18.28 150.879 18.64 151.919 18.64C152.719 18.64 153.385 18.4533 153.919 18.08C154.452 17.7067 154.819 17.1733 155.019 16.48H156.979C156.685 17.6 156.099 18.5 155.219 19.18C154.339 19.8467 153.239 20.18 151.919 20.18C150.879 20.18 149.952 19.9467 149.139 19.48C148.339 19.0133 147.712 18.3533 147.259 17.5C146.805 16.6467 146.579 15.6467 146.579 14.5ZM164.187 20.18C163.161 20.18 162.227 19.9467 161.387 19.48C160.561 19.0133 159.907 18.3533 159.427 17.5C158.961 16.6333 158.727 15.6333 158.727 14.5C158.727 13.38 158.967 12.3933 159.447 11.54C159.941 10.6733 160.607 10.0133 161.447 9.56C162.287 9.09333 163.227 8.86 164.267 8.86C165.307 8.86 166.247 9.09333 167.087 9.56C167.927 10.0133 168.587 10.6667 169.067 11.52C169.561 12.3733 169.807 13.3667 169.807 14.5C169.807 15.6333 169.554 16.6333 169.047 17.5C168.554 18.3533 167.881 19.0133 167.027 19.48C166.174 19.9467 165.227 20.18 164.187 20.18ZM164.187 18.58C164.841 18.58 165.454 18.4267 166.027 18.12C166.601 17.8133 167.061 17.3533 167.407 16.74C167.767 16.1267 167.947 15.38 167.947 14.5C167.947 13.62 167.774 12.8733 167.427 12.26C167.081 11.6467 166.627 11.1933 166.067 10.9C165.507 10.5933 164.901 10.44 164.247 10.44C163.581 10.44 162.967 10.5933 162.407 10.9C161.861 11.1933 161.421 11.6467 161.087 12.26C160.754 12.8733 160.587 13.62 160.587 14.5C160.587 15.3933 160.747 16.1467 161.067 16.76C161.401 17.3733 161.841 17.8333 162.387 18.14C162.934 18.4333 163.534 18.58 164.187 18.58ZM185.38 8.84C186.233 8.84 186.993 9.02 187.66 9.38C188.327 9.72667 188.853 10.2533 189.24 10.96C189.627 11.6667 189.82 12.5267 189.82 13.54V20H188.02V13.8C188.02 12.7067 187.747 11.8733 187.2 11.3C186.667 10.7133 185.94 10.42 185.02 10.42C184.073 10.42 183.32 10.7267 182.76 11.34C182.2 11.94 181.92 12.8133 181.92 13.96V20H180.12V13.8C180.12 12.7067 179.847 11.8733 179.3 11.3C178.767 10.7133 178.04 10.42 177.12 10.42C176.173 10.42 175.42 10.7267 174.86 11.34C174.3 11.94 174.02 12.8133 174.02 13.96V20H172.2V9.04H174.02V10.62C174.38 10.0467 174.86 9.60667 175.46 9.3C176.073 8.99333 176.747 8.84 177.48 8.84C178.4 8.84 179.213 9.04667 179.92 9.46C180.627 9.87333 181.153 10.48 181.5 11.28C181.807 10.5067 182.313 9.90667 183.02 9.48C183.727 9.05333 184.513 8.84 185.38 8.84ZM193.386 20.12C193.039 20.12 192.746 20 192.506 19.76C192.266 19.52 192.146 19.2267 192.146 18.88C192.146 18.5333 192.266 18.24 192.506 18C192.746 17.76 193.039 17.64 193.386 17.64C193.719 17.64 193.999 17.76 194.226 18C194.466 18.24 194.586 18.5333 194.586 18.88C194.586 19.2267 194.466 19.52 194.226 19.76C193.999 20 193.719 20.12 193.386 20.12ZM202.345 8.84C203.678 8.84 204.758 9.24667 205.585 10.06C206.412 10.86 206.825 12.02 206.825 13.54V20H205.025V13.8C205.025 12.7067 204.752 11.8733 204.205 11.3C203.658 10.7133 202.912 10.42 201.965 10.42C201.005 10.42 200.238 10.72 199.665 11.32C199.105 11.92 198.825 12.7933 198.825 13.94V20H197.005V9.04H198.825V10.6C199.185 10.04 199.672 9.60667 200.285 9.3C200.912 8.99333 201.598 8.84 202.345 8.84ZM214.318 8.86C215.264 8.86 216.091 9.06667 216.798 9.48C217.518 9.89333 218.051 10.4133 218.398 11.04V9.04H220.238V20.24C220.238 21.24 220.024 22.1267 219.598 22.9C219.171 23.6867 218.558 24.3 217.758 24.74C216.971 25.18 216.051 25.4 214.998 25.4C213.558 25.4 212.358 25.06 211.398 24.38C210.438 23.7 209.871 22.7733 209.698 21.6H211.498C211.698 22.2667 212.111 22.8 212.738 23.2C213.364 23.6133 214.118 23.82 214.998 23.82C215.998 23.82 216.811 23.5067 217.438 22.88C218.078 22.2533 218.398 21.3733 218.398 20.24V17.94C218.038 18.58 217.504 19.1133 216.798 19.54C216.091 19.9667 215.264 20.18 214.318 20.18C213.344 20.18 212.458 19.94 211.658 19.46C210.871 18.98 210.251 18.3067 209.798 17.44C209.344 16.5733 209.118 15.5867 209.118 14.48C209.118 13.36 209.344 12.38 209.798 11.54C210.251 10.6867 210.871 10.0267 211.658 9.56C212.458 9.09333 213.344 8.86 214.318 8.86ZM218.398 14.5C218.398 13.6733 218.231 12.9533 217.898 12.34C217.564 11.7267 217.111 11.26 216.538 10.94C215.978 10.6067 215.358 10.44 214.678 10.44C213.998 10.44 213.378 10.6 212.818 10.92C212.258 11.24 211.811 11.7067 211.478 12.32C211.144 12.9333 210.978 13.6533 210.978 14.48C210.978 15.32 211.144 16.0533 211.478 16.68C211.811 17.2933 212.258 17.7667 212.818 18.1C213.378 18.42 213.998 18.58 214.678 18.58C215.358 18.58 215.978 18.42 216.538 18.1C217.111 17.7667 217.564 17.2933 217.898 16.68C218.231 16.0533 218.398 15.3267 218.398 14.5Z" fill="white"/>
<path d="M17 5H3C2.20435 5 1.44129 5.31607 0.87868 5.87868C0.316071 6.44129 0 7.20435 0 8V18C0 18.7956 0.316071 19.5587 0.87868 20.1213C1.44129 20.6839 2.20435 21 3 21H17C17.7956 21 18.5587 20.6839 19.1213 20.1213C19.6839 19.5587 20 18.7956 20 18V8C20 7.20435 19.6839 6.44129 19.1213 5.87868C18.5587 5.31607 17.7956 5 17 5ZM3 7H17C17.2652 7 17.5196 7.10536 17.7071 7.29289C17.8946 7.48043 18 7.73478 18 8L10 12.88L2 8C2 7.73478 2.10536 7.48043 2.29289 7.29289C2.48043 7.10536 2.73478 7 3 7ZM18 18C18 18.2652 17.8946 18.5196 17.7071 18.7071C17.5196 18.8946 17.2652 19 17 19H3C2.73478 19 2.48043 18.8946 2.29289 18.7071C2.10536 18.5196 2 18.2652 2 18V10.28L9.48 14.85C9.63202 14.9378 9.80446 14.984 9.98 14.984C10.1555 14.984 10.328 14.9378 10.48 14.85L18 10.28V18Z" fill="white"/>
</svg>
