<svg width="224" height="26" viewBox="0 0 224 26" fill="none" xmlns="http://www.w3.org/2000/svg">
<path d="M47.0552 13.46H42.7952V17.78H41.0952V13.46H36.8552V11.92H41.0952V7.58H42.7952V11.92H47.0552V13.46ZM49.7876 18.54C51.4809 17.18 52.8076 16.0667 53.7676 15.2C54.7276 14.32 55.5342 13.4067 56.1876 12.46C56.8542 11.5 57.1876 10.56 57.1876 9.64C57.1876 8.77333 56.9742 8.09333 56.5476 7.6C56.1342 7.09333 55.4609 6.84 54.5276 6.84C53.6209 6.84 52.9142 7.12667 52.4076 7.7C51.9142 8.26 51.6476 9.01333 51.6076 9.96H49.8476C49.9009 8.46667 50.3542 7.31333 51.2076 6.5C52.0609 5.68667 53.1609 5.28 54.5076 5.28C55.8809 5.28 56.9676 5.66 57.7676 6.42C58.5809 7.18 58.9876 8.22667 58.9876 9.56C58.9876 10.6667 58.6542 11.7467 57.9876 12.8C57.3342 13.84 56.5876 14.76 55.7476 15.56C54.9076 16.3467 53.8342 17.2667 52.5276 18.32H59.4076V19.84H49.7876V18.54ZM61.4715 9.18C61.5648 7.95333 62.0382 6.99333 62.8915 6.3C63.7448 5.60667 64.8515 5.26 66.2115 5.26C67.1182 5.26 67.8982 5.42667 68.5515 5.76C69.2182 6.08 69.7182 6.52 70.0515 7.08C70.3982 7.64 70.5715 8.27333 70.5715 8.98C70.5715 9.80667 70.3315 10.52 69.8515 11.12C69.3848 11.72 68.7715 12.1067 68.0115 12.28V12.38C68.8782 12.5933 69.5648 13.0133 70.0715 13.64C70.5782 14.2667 70.8315 15.0867 70.8315 16.1C70.8315 16.86 70.6582 17.5467 70.3115 18.16C69.9648 18.76 69.4448 19.2333 68.7515 19.58C68.0582 19.9267 67.2248 20.1 66.2515 20.1C64.8382 20.1 63.6782 19.7333 62.7715 19C61.8648 18.2533 61.3582 17.2 61.2515 15.84H63.0115C63.1048 16.64 63.4315 17.2933 63.9915 17.8C64.5515 18.3067 65.2982 18.56 66.2315 18.56C67.1648 18.56 67.8715 18.32 68.3515 17.84C68.8448 17.3467 69.0915 16.7133 69.0915 15.94C69.0915 14.94 68.7582 14.22 68.0915 13.78C67.4248 13.34 66.4182 13.12 65.0715 13.12H64.6115V11.6H65.0915C66.3182 11.5867 67.2448 11.3867 67.8715 11C68.4982 10.6 68.8115 9.98667 68.8115 9.16C68.8115 8.45333 68.5782 7.88667 68.1115 7.46C67.6582 7.03333 67.0048 6.82 66.1515 6.82C65.3248 6.82 64.6582 7.03333 64.1515 7.46C63.6448 7.88667 63.3448 8.46 63.2515 9.18H61.4715ZM72.8488 16.78V15.4L79.8688 5.68H82.0488V15.2H84.0488V16.78H82.0488V20H80.2488V16.78H72.8488ZM80.3288 7.58L74.9488 15.2H80.3288V7.58ZM93.539 16.12C93.6723 16.88 93.979 17.4667 94.459 17.88C94.9523 18.2933 95.6123 18.5 96.439 18.5C97.5457 18.5 98.359 18.0667 98.879 17.2C99.4123 16.3333 99.6657 14.8733 99.639 12.82C99.359 13.42 98.8923 13.8933 98.239 14.24C97.5857 14.5733 96.859 14.74 96.059 14.74C95.1657 14.74 94.3657 14.56 93.659 14.2C92.9657 13.8267 92.419 13.2867 92.019 12.58C91.619 11.8733 91.419 11.02 91.419 10.02C91.419 8.59333 91.8323 7.44667 92.659 6.58C93.4857 5.7 94.659 5.26 96.179 5.26C98.0457 5.26 99.3523 5.86667 100.099 7.08C100.859 8.29333 101.239 10.1 101.239 12.5C101.239 14.18 101.086 15.5667 100.779 16.66C100.486 17.7533 99.979 18.5867 99.259 19.16C98.5523 19.7333 97.579 20.02 96.339 20.02C94.979 20.02 93.919 19.6533 93.159 18.92C92.399 18.1867 91.9657 17.2533 91.859 16.12H93.539ZM96.359 13.2C97.2523 13.2 97.9857 12.9267 98.559 12.38C99.1323 11.82 99.419 11.0667 99.419 10.12C99.419 9.12 99.139 8.31333 98.579 7.7C98.019 7.08667 97.2323 6.78 96.219 6.78C95.2857 6.78 94.539 7.07333 93.979 7.66C93.4323 8.24667 93.159 9.02 93.159 9.98C93.159 10.9533 93.4323 11.7333 93.979 12.32C94.5257 12.9067 95.319 13.2 96.359 13.2ZM103.797 12.62C103.797 10.3267 104.17 8.54 104.917 7.26C105.663 5.96667 106.97 5.32 108.837 5.32C110.69 5.32 111.99 5.96667 112.737 7.26C113.483 8.54 113.857 10.3267 113.857 12.62C113.857 14.9533 113.483 16.7667 112.737 18.06C111.99 19.3533 110.69 20 108.837 20C106.97 20 105.663 19.3533 104.917 18.06C104.17 16.7667 103.797 14.9533 103.797 12.62ZM112.057 12.62C112.057 11.46 111.977 10.48 111.817 9.68C111.67 8.86667 111.357 8.21333 110.877 7.72C110.41 7.22667 109.73 6.98 108.837 6.98C107.93 6.98 107.237 7.22667 106.757 7.72C106.29 8.21333 105.977 8.86667 105.817 9.68C105.67 10.48 105.597 11.46 105.597 12.62C105.597 13.82 105.67 14.8267 105.817 15.64C105.977 16.4533 106.29 17.1067 106.757 17.6C107.237 18.0933 107.93 18.34 108.837 18.34C109.73 18.34 110.41 18.0933 110.877 17.6C111.357 17.1067 111.67 16.4533 111.817 15.64C111.977 14.8267 112.057 13.82 112.057 12.62ZM116.315 9.18C116.409 7.95333 116.882 6.99333 117.735 6.3C118.589 5.60667 119.695 5.26 121.055 5.26C121.962 5.26 122.742 5.42667 123.395 5.76C124.062 6.08 124.562 6.52 124.895 7.08C125.242 7.64 125.415 8.27333 125.415 8.98C125.415 9.80667 125.175 10.52 124.695 11.12C124.229 11.72 123.615 12.1067 122.855 12.28V12.38C123.722 12.5933 124.409 13.0133 124.915 13.64C125.422 14.2667 125.675 15.0867 125.675 16.1C125.675 16.86 125.502 17.5467 125.155 18.16C124.809 18.76 124.289 19.2333 123.595 19.58C122.902 19.9267 122.069 20.1 121.095 20.1C119.682 20.1 118.522 19.7333 117.615 19C116.709 18.2533 116.202 17.2 116.095 15.84H117.855C117.949 16.64 118.275 17.2933 118.835 17.8C119.395 18.3067 120.142 18.56 121.075 18.56C122.009 18.56 122.715 18.32 123.195 17.84C123.689 17.3467 123.935 16.7133 123.935 15.94C123.935 14.94 123.602 14.22 122.935 13.78C122.269 13.34 121.262 13.12 119.915 13.12H119.455V11.6H119.935C121.162 11.5867 122.089 11.3867 122.715 11C123.342 10.6 123.655 9.98667 123.655 9.16C123.655 8.45333 123.422 7.88667 122.955 7.46C122.502 7.03333 121.849 6.82 120.995 6.82C120.169 6.82 119.502 7.03333 118.995 7.46C118.489 7.88667 118.189 8.46 118.095 9.18H116.315ZM142.685 7.12H135.665V11.68C135.971 11.2533 136.425 10.9067 137.025 10.64C137.625 10.36 138.271 10.22 138.965 10.22C140.071 10.22 140.971 10.4533 141.665 10.92C142.358 11.3733 142.851 11.9667 143.145 12.7C143.451 13.42 143.605 14.1867 143.605 15C143.605 15.96 143.425 16.82 143.065 17.58C142.705 18.34 142.151 18.94 141.405 19.38C140.671 19.82 139.758 20.04 138.665 20.04C137.265 20.04 136.131 19.68 135.265 18.96C134.398 18.24 133.871 17.28 133.685 16.08H135.465C135.638 16.84 136.005 17.4333 136.565 17.86C137.125 18.2867 137.831 18.5 138.685 18.5C139.738 18.5 140.531 18.1867 141.065 17.56C141.598 16.92 141.865 16.08 141.865 15.04C141.865 14 141.598 13.2 141.065 12.64C140.531 12.0667 139.745 11.78 138.705 11.78C137.998 11.78 137.378 11.9533 136.845 12.3C136.325 12.6333 135.945 13.0933 135.705 13.68H133.985V5.52H142.685V7.12ZM148.663 12.48C147.917 12.1867 147.343 11.76 146.943 11.2C146.543 10.64 146.343 9.96 146.343 9.16C146.343 8.44 146.523 7.79333 146.883 7.22C147.243 6.63333 147.777 6.17333 148.483 5.84C149.203 5.49333 150.07 5.32 151.083 5.32C152.097 5.32 152.957 5.49333 153.663 5.84C154.383 6.17333 154.923 6.63333 155.283 7.22C155.657 7.79333 155.843 8.44 155.843 9.16C155.843 9.93333 155.637 10.6133 155.223 11.2C154.81 11.7733 154.243 12.2 153.523 12.48C154.35 12.7333 155.003 13.18 155.483 13.82C155.977 14.4467 156.223 15.2067 156.223 16.1C156.223 16.9667 156.01 17.7267 155.583 18.38C155.157 19.02 154.55 19.52 153.763 19.88C152.99 20.2267 152.097 20.4 151.083 20.4C150.07 20.4 149.177 20.2267 148.403 19.88C147.643 19.52 147.05 19.02 146.623 18.38C146.197 17.7267 145.983 16.9667 145.983 16.1C145.983 15.2067 146.223 14.44 146.703 13.8C147.183 13.16 147.837 12.72 148.663 12.48ZM154.083 9.38C154.083 8.56667 153.817 7.94 153.283 7.5C152.75 7.06 152.017 6.84 151.083 6.84C150.163 6.84 149.437 7.06 148.903 7.5C148.37 7.94 148.103 8.57333 148.103 9.4C148.103 10.1467 148.377 10.7467 148.923 11.2C149.483 11.6533 150.203 11.88 151.083 11.88C151.977 11.88 152.697 11.6533 153.243 11.2C153.803 10.7333 154.083 10.1267 154.083 9.38ZM151.083 13.28C150.097 13.28 149.29 13.5133 148.663 13.98C148.037 14.4333 147.723 15.12 147.723 16.04C147.723 16.8933 148.023 17.58 148.623 18.1C149.237 18.62 150.057 18.88 151.083 18.88C152.11 18.88 152.923 18.62 153.523 18.1C154.123 17.58 154.423 16.8933 154.423 16.04C154.423 15.1467 154.117 14.4667 153.503 14C152.89 13.52 152.083 13.28 151.083 13.28ZM158.64 12.62C158.64 10.3267 159.014 8.54 159.76 7.26C160.507 5.96667 161.814 5.32 163.68 5.32C165.534 5.32 166.834 5.96667 167.58 7.26C168.327 8.54 168.7 10.3267 168.7 12.62C168.7 14.9533 168.327 16.7667 167.58 18.06C166.834 19.3533 165.534 20 163.68 20C161.814 20 160.507 19.3533 159.76 18.06C159.014 16.7667 158.64 14.9533 158.64 12.62ZM166.9 12.62C166.9 11.46 166.82 10.48 166.66 9.68C166.514 8.86667 166.2 8.21333 165.72 7.72C165.254 7.22667 164.574 6.98 163.68 6.98C162.774 6.98 162.08 7.22667 161.6 7.72C161.134 8.21333 160.82 8.86667 160.66 9.68C160.514 10.48 160.44 11.46 160.44 12.62C160.44 13.82 160.514 14.8267 160.66 15.64C160.82 16.4533 161.134 17.1067 161.6 17.6C162.08 18.0933 162.774 18.34 163.68 18.34C164.574 18.34 165.254 18.0933 165.72 17.6C166.2 17.1067 166.514 16.4533 166.66 15.64C166.82 14.8267 166.9 13.82 166.9 12.62ZM185.431 6.96L179.871 20H178.031L183.671 7.14H175.951V5.58H185.431V6.96ZM187.449 12.62C187.449 10.3267 187.822 8.54 188.569 7.26C189.316 5.96667 190.622 5.32 192.489 5.32C194.342 5.32 195.642 5.96667 196.389 7.26C197.136 8.54 197.509 10.3267 197.509 12.62C197.509 14.9533 197.136 16.7667 196.389 18.06C195.642 19.3533 194.342 20 192.489 20C190.622 20 189.316 19.3533 188.569 18.06C187.822 16.7667 187.449 14.9533 187.449 12.62ZM195.709 12.62C195.709 11.46 195.629 10.48 195.469 9.68C195.322 8.86667 195.009 8.21333 194.529 7.72C194.062 7.22667 193.382 6.98 192.489 6.98C191.582 6.98 190.889 7.22667 190.409 7.72C189.942 8.21333 189.629 8.86667 189.469 9.68C189.322 10.48 189.249 11.46 189.249 12.62C189.249 13.82 189.322 14.8267 189.469 15.64C189.629 16.4533 189.942 17.1067 190.409 17.6C190.889 18.0933 191.582 18.34 192.489 18.34C193.382 18.34 194.062 18.0933 194.529 17.6C195.009 17.1067 195.322 16.4533 195.469 15.64C195.629 14.8267 195.709 13.82 195.709 12.62ZM209.228 7.12H202.208V11.68C202.514 11.2533 202.968 10.9067 203.568 10.64C204.168 10.36 204.814 10.22 205.508 10.22C206.614 10.22 207.514 10.4533 208.208 10.92C208.901 11.3733 209.394 11.9667 209.688 12.7C209.994 13.42 210.148 14.1867 210.148 15C210.148 15.96 209.968 16.82 209.608 17.58C209.248 18.34 208.694 18.94 207.948 19.38C207.214 19.82 206.301 20.04 205.208 20.04C203.808 20.04 202.674 19.68 201.808 18.96C200.941 18.24 200.414 17.28 200.228 16.08H202.008C202.181 16.84 202.548 17.4333 203.108 17.86C203.668 18.2867 204.374 18.5 205.228 18.5C206.281 18.5 207.074 18.1867 207.608 17.56C208.141 16.92 208.408 16.08 208.408 15.04C208.408 14 208.141 13.2 207.608 12.64C207.074 12.0667 206.288 11.78 205.248 11.78C204.541 11.78 203.921 11.9533 203.388 12.3C202.868 12.6333 202.488 13.0933 202.248 13.68H200.528V5.52H209.228V7.12ZM212.566 12.62C212.566 10.3267 212.94 8.54 213.686 7.26C214.433 5.96667 215.74 5.32 217.606 5.32C219.46 5.32 220.76 5.96667 221.506 7.26C222.253 8.54 222.626 10.3267 222.626 12.62C222.626 14.9533 222.253 16.7667 221.506 18.06C220.76 19.3533 219.46 20 217.606 20C215.74 20 214.433 19.3533 213.686 18.06C212.94 16.7667 212.566 14.9533 212.566 12.62ZM220.826 12.62C220.826 11.46 220.746 10.48 220.586 9.68C220.44 8.86667 220.126 8.21333 219.646 7.72C219.18 7.22667 218.5 6.98 217.606 6.98C216.7 6.98 216.006 7.22667 215.526 7.72C215.06 8.21333 214.746 8.86667 214.586 9.68C214.44 10.48 214.366 11.46 214.366 12.62C214.366 13.82 214.44 14.8267 214.586 15.64C214.746 16.4533 215.06 17.1067 215.526 17.6C216.006 18.0933 216.7 18.34 217.606 18.34C218.5 18.34 219.18 18.0933 219.646 17.6C220.126 17.1067 220.44 16.4533 220.586 15.64C220.746 14.8267 220.826 13.82 220.826 12.62Z" fill="white"/>
<path d="M10 4C8.68678 4 7.38642 4.25866 6.17317 4.7612C4.95991 5.26375 3.85752 6.00035 2.92893 6.92893C1.05357 8.8043 0 11.3478 0 14V21C0 21.2652 0.105357 21.5196 0.292893 21.7071C0.48043 21.8946 0.734784 22 1 22H4C4.79565 22 5.55871 21.6839 6.12132 21.1213C6.68393 20.5587 7 19.7956 7 19V17C7 16.2044 6.68393 15.4413 6.12132 14.8787C5.55871 14.3161 4.79565 14 4 14H2C2 11.8783 2.84285 9.84344 4.34315 8.34315C5.84344 6.84285 7.87827 6 10 6C12.1217 6 14.1566 6.84285 15.6569 8.34315C17.1571 9.84344 18 11.8783 18 14H16C15.2044 14 14.4413 14.3161 13.8787 14.8787C13.3161 15.4413 13 16.2044 13 17V19C13 19.7956 13.3161 20.5587 13.8787 21.1213C14.4413 21.6839 15.2044 22 16 22H19C19.2652 22 19.5196 21.8946 19.7071 21.7071C19.8946 21.5196 20 21.2652 20 21V14C20 11.3478 18.9464 8.8043 17.0711 6.92893C15.1957 5.05357 12.6522 4 10 4ZM4 16C4.26522 16 4.51957 16.1054 4.70711 16.2929C4.89464 16.4804 5 16.7348 5 17V19C5 19.2652 4.89464 19.5196 4.70711 19.7071C4.51957 19.8946 4.26522 20 4 20H2V16H4ZM18 20H16C15.7348 20 15.4804 19.8946 15.2929 19.7071C15.1054 19.5196 15 19.2652 15 19V17C15 16.7348 15.1054 16.4804 15.2929 16.2929C15.4804 16.1054 15.7348 16 16 16H18V20Z" fill="white"/>
</svg>
